<?xml version="1.0" encoding="utf-8"?>
<!-- Generator: Adobe Illustrator 25.2.0, SVG Export Plug-In . SVG Version: 6.00 Build 0)  -->
<svg version="1.1" id="图层_1" xmlns="http://www.w3.org/2000/svg" xmlns:xlink="http://www.w3.org/1999/xlink" x="0px" y="0px"
	 width="896px" height="896px" viewBox="0 0 896 896" style="enable-background:new 0 0 896 896;" xml:space="preserve">
<style type="text/css">
	.st0{fill:#0E8680;}
</style>
<path class="st0" d="M886.3,801.1L164.1,605.7c-1.1-0.3-2.3-0.5-3.4-0.5H92.3c16.9-201,277.8-327.2,389.3-381.1l7.5-3.6l3.8,6.7
	l35.2-20.3l53.4-10.9l21.7-12.1l9.4,16.1l3.3-2.6c40.4,11.1,92.7-19.1,123-71.6c2.5-4.2,4.7-8.6,6.9-13l-0.1-0.1
	c10.8-18.5,10.9-41,0.3-59.4c-10.6-18.4-30-29.4-51.3-29.4c-0.1,0-0.2,0-0.4,0l0-0.2c-4.9-0.4-9.8-0.5-14.7-0.5
	c-62.5,0-115.9,32-124.3,74.4l-0.1,3.1l6.4,11.1l-19.7,11.4L504,165l-35.2,20.3l4.9,8.5l-5.5,2.7C351.5,252.9,78.1,385,61.5,604.7
	l0,0.5H13.2c-7.3,0-13.2,5.9-13.2,13.2v241.4c0,7.3,5.9,13.2,13.2,13.2h869.6c7.3,0,13.2-5.9,13.2-13.2v-46
	C896,807.8,892,802.6,886.3,801.1z M39.8,833.1v-188H68H105h52.1l695,188H39.8z"/>
</svg>
