<?xml version="1.0" encoding="utf-8"?>
<!-- Generator: Adobe Illustrator 25.4.1, SVG Export Plug-In . SVG Version: 6.00 Build 0)  -->
<svg version="1.1" id="线_编辑" xmlns="http://www.w3.org/2000/svg" xmlns:xlink="http://www.w3.org/1999/xlink" x="0px" y="0px"
	 width="896px" height="896px" viewBox="0 0 896 896" style="enable-background:new 0 0 896 896;" xml:space="preserve">
<style type="text/css">
	.st0{fill:#FFFFFF;}
</style>
<g>
	<path class="st0" d="M27,335.5h840c12.9,0,24.1-8.8,27.2-21.2s-2.7-25.4-14-31.5l-420-224c-8.2-4.4-18.2-4.4-26.4,0l-420,224
		c-11.3,6.1-17.1,19-14,31.5S14.2,335.5,27,335.5z M447,115.3l308,164.3H139L447,115.3z"/>
	<path class="st0" d="M867,783.5H27c-15.5,0-28,12.5-28,28s12.5,28,28,28h840c15.5,0,28-12.5,28-28S882.5,783.5,867,783.5z"/>
	<path class="st0" d="M699,447.5v224c0,15.5,12.5,28,28,28s28-12.5,28-28v-224c0-15.5-12.5-28-28-28S699,432.1,699,447.5z"/>
	<path class="st0" d="M139,447.5v224c0,15.5,12.5,28,28,28s28-12.5,28-28v-224c0-15.5-12.5-28-28-28S139,432.1,139,447.5z"/>
	<path class="st0" d="M419,447.5v224c0,15.5,12.5,28,28,28s28-12.5,28-28v-224c0-15.5-12.5-28-28-28S419,432.1,419,447.5z"/>
</g>
</svg>
