<?xml version="1.0" encoding="utf-8"?>
<!-- Generator: Adobe Illustrator 25.2.0, SVG Export Plug-In . SVG Version: 6.00 Build 0)  -->
<svg version="1.1" id="图层_1" xmlns="http://www.w3.org/2000/svg" xmlns:xlink="http://www.w3.org/1999/xlink" x="0px" y="0px"
	 width="896px" height="896px" viewBox="0 0 896 896" style="enable-background:new 0 0 896 896;" xml:space="preserve">
<style type="text/css">
	.st0{fill:#E87528;}
</style>
<g>
	<path class="st0" d="M877.3,124.9H18.7C8.4,124.9,0,133.3,0,143.6v230.2v149.3v230.2c0,10.3,8.4,18.7,18.7,18.7h858.7
		c10.3,0,18.7-8.4,18.7-18.7V523.2V373.8V143.6C896,133.3,887.6,124.9,877.3,124.9z M429.3,514.3c-28.7-8.2-49.8-34.5-49.8-65.8
		c0-31.3,21.1-57.6,49.8-65.8V514.3z M466.7,382.7c28.7,8.2,49.8,34.5,49.8,65.8c0,31.3-21.1,57.6-49.8,65.8V382.7z M37.3,392.5H112
		v112H37.3V392.5z M37.3,541.8h93.3c10.3,0,18.7-8.4,18.7-18.7V373.8c0-10.3-8.4-18.7-18.7-18.7H37.3V162.3h392v182.2
		c-49.4,8.9-87.1,52.1-87.1,104c0,51.9,37.7,95.2,87.1,104v182.2h-392V541.8z M466.7,734.7V552.5c49.4-8.9,87.1-52.1,87.1-104
		c0-51.9-37.7-95.2-87.1-104V162.3h392v192.9h-93.3c-10.3,0-18.7,8.4-18.7,18.7v149.3c0,10.3,8.4,18.7,18.7,18.7h93.3v192.9H466.7z
		 M858.7,504.5H784v-112h74.7V504.5z"/>
	<path class="st0" d="M71.8,230.7c-10.3,0-18.7,8.4-18.7,18.7c0,10.3,8.4,18.7,18.7,18.7c99.5,0,180.4,80.9,180.4,180.4
		S171.3,628.9,71.8,628.9c-10.3,0-18.7,8.4-18.7,18.7c0,10.3,8.4,18.7,18.7,18.7c120.1,0,217.8-97.7,217.8-217.8
		S191.8,230.7,71.8,230.7z"/>
	<path class="st0" d="M824.2,628.9c-99.5,0-180.4-80.9-180.4-180.4s80.9-180.4,180.4-180.4c10.3,0,18.7-8.4,18.7-18.7
		c0-10.3-8.4-18.7-18.7-18.7c-120.1,0-217.8,97.7-217.8,217.8s97.7,217.8,217.8,217.8c10.3,0,18.7-8.4,18.7-18.7
		C842.9,637.3,834.6,628.9,824.2,628.9z"/>
</g>
</svg>
