<?xml version="1.0" encoding="utf-8"?>
<!-- Generator: Adobe Illustrator 25.2.0, SVG Export Plug-In . SVG Version: 6.00 Build 0)  -->
<svg version="1.1" id="图层_1" xmlns="http://www.w3.org/2000/svg" xmlns:xlink="http://www.w3.org/1999/xlink" x="0px" y="0px"
	 width="896px" height="896px" viewBox="0 0 896 896" style="enable-background:new 0 0 896 896;" xml:space="preserve">
<style type="text/css">
	.st0{fill:#B5662A;}
</style>
<g>
	<path class="st0" d="M889.5,390.3L471.8,33.7C458,21.9,438,22,424.1,33.7L6.5,390.3c-7.8,6.7-8.8,18.5-2.1,26.3
		c6.7,7.8,18.5,8.8,26.3,2.1l43.9-37.5v453c0,20.4,16.3,37,36.4,37h355.6h186.7H785c20,0,36.4-16.6,36.4-37V381.2l43.9,37.5
		c3.5,3,7.8,4.5,12.1,4.5c5.3,0,10.5-2.2,14.2-6.5C898.2,408.7,897.3,397,889.5,390.3z M485.3,833.8V535.1h149.3v298.7H485.3z
		 M785,833.8l-113,0.1V516.5c0-10.3-8.4-18.7-18.7-18.7H466.7c-10.3,0-18.7,8.4-18.7,18.7v317.5l-336,0.2V349.2L447.6,62.1
		L784,349.3L785,833.8z"/>
	<path class="st0" d="M354.7,497.8h-112c-10.3,0-18.7,8.4-18.7,18.7v112c0,10.3,8.4,18.7,18.7,18.7h112c10.3,0,18.7-8.4,18.7-18.7
		v-112C373.3,506.1,365,497.8,354.7,497.8z M336,609.8h-74.7v-74.7H336V609.8z"/>
</g>
</svg>
