<?xml version="1.0" encoding="utf-8"?>
<!-- Generator: Adobe Illustrator 25.2.0, SVG Export Plug-In . SVG Version: 6.00 Build 0)  -->
<svg version="1.1" id="图层_1" xmlns="http://www.w3.org/2000/svg" xmlns:xlink="http://www.w3.org/1999/xlink" x="0px" y="0px"
	 width="896px" height="896px" viewBox="0 0 896 896" style="enable-background:new 0 0 896 896;" xml:space="preserve">
<style type="text/css">
	.st0{fill:#bbbcbc;}
</style>
<path class="st0" d="M448,37.3c226.4,0,410.7,184.2,410.7,410.7c0,226.4-184.2,410.7-410.7,410.7C221.6,858.7,37.3,674.4,37.3,448
	C37.3,221.6,221.6,37.3,448,37.3 M448,0L448,0C200.6,0,0,200.6,0,448v0c0,247.4,200.6,448,448,448h0c247.4,0,448-200.6,448-448v0
	C896,200.6,695.4,0,448,0L448,0z"/>
<g>
	<path class="st0" d="M447.8,507.9c-17.2,0-31.1-13.9-31.1-31.1V276.1c0-17.2,13.9-31.1,31.1-31.1c17.2,0,31.1,13.9,31.1,31.1v200.6
		C478.9,494,465,507.9,447.8,507.9z"/>
	<path class="st0" d="M448,652c-2,0-4.1-0.2-6.1-0.6c-2-0.4-4-1-5.8-1.7c-1.9-0.8-3.6-1.8-5.4-2.9c-1.6-1.1-3.2-2.5-4.7-3.9
		c-1.4-1.5-2.7-3-3.9-4.7c-1.1-1.8-2.1-3.5-2.9-5.4c-0.7-1.9-1.4-3.9-1.7-5.8c-0.4-2-0.6-4.1-0.6-6.1c0-8.2,3.4-16.2,9.1-22
		c1.5-1.4,3.1-2.7,4.7-3.9c1.7-1.1,3.5-2.1,5.4-2.9c1.9-0.8,3.9-1.4,5.8-1.8c10.1-2,20.9,1.3,28.1,8.5c5.7,5.8,9.1,13.8,9.1,22
		c0,2-0.3,4.1-0.6,6.1c-0.4,2-1,4-1.8,5.8c-0.7,1.9-1.7,3.6-2.9,5.4c-1.1,1.7-2.5,3.2-3.9,4.7c-1.5,1.4-3.1,2.7-4.7,3.9
		c-1.7,1.1-3.5,2.1-5.3,2.9c-1.9,0.7-3.9,1.4-5.9,1.7C452.1,651.7,450,652,448,652z"/>
</g>
</svg>
