<?xml version="1.0" encoding="utf-8"?>
<!-- Generator: Adobe Illustrator 25.2.0, SVG Export Plug-In . SVG Version: 6.00 Build 0)  -->
<svg version="1.1" id="图层_1" xmlns="http://www.w3.org/2000/svg" xmlns:xlink="http://www.w3.org/1999/xlink" x="0px" y="0px"
	 width="896px" height="896px" viewBox="0 0 896 896" style="enable-background:new 0 0 896 896;" xml:space="preserve">
<style type="text/css">
	.st0{fill:#355B3B;}
</style>
<g>
	<path class="st0" d="M68.4,709.3c10.3,0,18.7-8.4,18.7-18.7v-24.9h373.3v24.9c0,10.3,8.4,18.7,18.7,18.7c10.3,0,18.7-8.4,18.7-18.7
		V553.8c0-10.3-8.4-18.7-18.7-18.7H68.4c-10.3,0-18.7,8.4-18.7,18.7v136.9C49.8,701,58.1,709.3,68.4,709.3z M460.4,572.4v56H87.1
		v-56H460.4z"/>
	<path class="st0" d="M528.9,734.2H18.7C8.4,734.2,0,742.6,0,752.9v124.4C0,887.6,8.4,896,18.7,896s18.7-8.4,18.7-18.7V771.6h472.9
		v105.8c0,10.3,8.4,18.7,18.7,18.7c10.3,0,18.7-8.4,18.7-18.7V752.9C547.6,742.6,539.2,734.2,528.9,734.2z"/>
	<path class="st0" d="M896,312.6C896,188.1,801.7,0,659.6,0S423.1,188.1,423.1,312.6c0,128.3,95.4,236.9,217.1,247.3l0.7,0v317.5
		c0,10.3,8.4,18.7,18.7,18.7s18.7-8.4,18.7-18.7V559.9C800.4,549.8,896,441.2,896,312.6z M678.3,522.4c0.6-32.4,6.4-90.8,38-126
		c17.1-19.1,39.4-28.6,68.1-29.3c10.3-0.2,18.5-8.8,18.3-19.1c-0.2-10.3-8.6-18.9-19.1-18.3c-39.1,0.9-71.1,14.9-95.1,41.7
		c-3.7,4.1-7.1,8.4-10.2,12.9V267.6c0-10.3-8.4-18.7-18.7-18.7s-18.7,8.4-18.7,18.7v134.3c-0.5-0.6-1.1-1.3-1.6-1.9
		c-21.4-24.6-50.7-37.6-86.8-38.7c-10.3-0.4-18.9,7.8-19.2,18.1c-0.3,10.3,7.8,18.9,18.1,19.2c25.7,0.8,45.3,9.2,59.8,25.8
		c24.6,28.2,28.7,72.8,28.9,97.9c-100.9-10.5-179.5-102-179.5-209.8c0-108.3,85.5-275.2,199.1-275.2s199.1,167,199.1,275.2
		C858.7,420.8,779.7,512.3,678.3,522.4z"/>
</g>
</svg>
