<?xml version="1.0" encoding="utf-8"?>
<!-- Generator: Adobe Illustrator 25.4.1, SVG Export Plug-In . SVG Version: 6.00 Build 0)  -->
<svg version="1.1" id="图层_1" xmlns="http://www.w3.org/2000/svg" xmlns:xlink="http://www.w3.org/1999/xlink" x="0px" y="0px"
	 width="56px" height="56px" viewBox="0 0 56 56" style="enable-background:new 0 0 56 56;" xml:space="preserve">
<!-- <style type="text/css">
	.st0{fill-rule:evenodd;clip-rule:evenodd;fill:#0E8680;}
	.st1{fill:#0E8680;}
</style> -->
<g>
	<path class="st0" d="M36,10H20c-5.5,0-10,4.5-10,10v16c0,5.5,4.5,10,10,10h16c5.5,0,10-4.5,10-10V20C46,14.5,41.5,10,36,10z
		 M44.5,36c0,4.7-3.8,8.5-8.5,8.5H20c-4.7,0-8.5-3.8-8.5-8.5V20c0-4.7,3.8-8.5,8.5-8.5h16c4.7,0,8.5,3.8,8.5,8.5V36L44.5,36z"/>
	<g>
		<g id="形状_2">
			<g>
				<path class="st1" d="M39.2,25.3C39,25.1,38.8,25,38.6,25l0,0c-0.2,0-0.5,0.1-0.6,0.3c-0.2,0.2-0.3,0.4-0.3,0.6v3.8
					c0,0.5,0.4,0.9,0.9,0.9s0.9-0.4,0.9-0.9v-3.8C39.5,25.7,39.4,25.5,39.2,25.3z"/>
			</g>
		</g>
		<g id="形状_2_拷贝_5">
			<g>
				<path class="st1" d="M35,20.7c-0.2-0.2-0.4-0.3-0.6-0.3c-0.2,0-0.5,0.1-0.6,0.3c-0.2,0.2-0.3,0.4-0.3,0.6v13.2
					c0,0.5,0.4,0.9,0.9,0.9s0.9-0.4,0.9-0.9V21.4C35.3,21.1,35.2,20.9,35,20.7z"/>
			</g>
		</g>
		<g id="形状_2_拷贝_3">
			<g>
				<path class="st1" d="M30.8,17.3c-0.2-0.2-0.4-0.3-0.6-0.3s-0.5,0.1-0.6,0.3s-0.3,0.4-0.3,0.6v20.2c0,0.5,0.4,0.9,0.9,0.9
					s0.9-0.4,0.9-0.9V17.9C31.1,17.6,31,17.4,30.8,17.3z"/>
			</g>
		</g>
		<g id="形状_2_拷贝_4">
			<g>
				<path class="st1" d="M26.6,24c-0.2-0.2-0.4-0.3-0.6-0.3s-0.5,0.1-0.6,0.3c-0.2,0.2-0.3,0.4-0.3,0.6v6.9c0,0.5,0.4,0.9,0.9,0.9
					s0.9-0.4,0.9-0.9v-6.9C26.9,24.3,26.8,24.1,26.6,24z"/>
			</g>
		</g>
		<g id="形状_2_拷贝_2">
			<g>
				<path class="st1" d="M22.2,20.3C22,20.1,21.8,20,21.6,20s-0.5,0.1-0.6,0.3c-0.2,0.2-0.3,0.4-0.3,0.6v14.2c0,0.5,0.4,0.9,0.9,0.9
					s0.9-0.4,0.9-0.9V20.9C22.5,20.6,22.4,20.4,22.2,20.3z"/>
			</g>
		</g>
		<g id="形状_2_拷贝">
			<g>
				<path class="st1" d="M18,25.7c-0.2-0.2-0.4-0.3-0.6-0.3s-0.5,0.1-0.6,0.3c-0.2,0.2-0.3,0.4-0.3,0.6v3.2c0,0.5,0.4,0.9,0.9,0.9
					s0.9-0.4,0.9-0.9v-3.2C18.3,26.1,18.2,25.9,18,25.7z"/>
			</g>
		</g>
	</g>
</g>
</svg>
