<?xml version="1.0" encoding="utf-8"?>
<!-- Generator: Adobe Illustrator 25.4.1, SVG Export Plug-In . SVG Version: 6.00 Build 0)  -->
<svg version="1.1" id="图层_1" xmlns="http://www.w3.org/2000/svg" xmlns:xlink="http://www.w3.org/1999/xlink" x="0px" y="0px"
	 viewBox="0 0 56 56" style="enable-background:new 0 0 56 56;" xml:space="preserve">
<!-- <style type="text/css">
	.st0{fill:#0E8680;}
	.st1{opacity:0.1;fill:#0E8680;enable-background:new    ;}
</style> -->
<g>
	<path class="st0" d="M53.7,22.5c0.1,0,0.2,0,0.3,0.1c0.2,0.1,0.3,0.2,0.4,0.3c0.1,0.1,0.1,0.3,0.1,0.5v9.3c0,0.5-0.4,0.8-0.8,0.8
		H2.3c-0.5,0-0.8-0.4-0.8-0.8v-9.3c0-0.2,0.1-0.4,0.1-0.5c0.1-0.1,0.2-0.2,0.4-0.3c0.1,0,0.2-0.1,0.3-0.1L53.7,22.5 M53.7,21H2.3
		c-0.3,0-0.6,0.1-0.9,0.2c-0.4,0.2-0.8,0.5-1,0.8C0.2,22.4,0,22.8,0,23.3v9.3C0,34,1,35,2.3,35h51.3c1.3,0,2.3-1,2.3-2.3v-9.3
		c0-0.5-0.1-0.9-0.4-1.3c-0.3-0.4-0.6-0.7-1-0.8C54.3,21.1,54,21,53.7,21L53.7,21z"/>
	<circle class="st1" cx="6.6" cy="28" r="3.9"/>
	<circle class="st1" cx="49.4" cy="28" r="3.9"/>
</g>
</svg>
