<?xml version="1.0" encoding="utf-8"?>
<!-- Generator: Adobe Illustrator 25.4.1, SVG Export Plug-In . SVG Version: 6.00 Build 0)  -->
<svg version="1.1" id="线_编辑" xmlns="http://www.w3.org/2000/svg" xmlns:xlink="http://www.w3.org/1999/xlink" x="0px" y="0px"
	 width="896px" height="896px" viewBox="0 0 896 896" style="enable-background:new 0 0 896 896;" xml:space="preserve">
<style type="text/css">
	.st0{fill:#FFFFFF;}
</style>
<g>
	<path class="st0" d="M661.4,84H644V28c0-15.5-12.5-28-28-28s-28,12.5-28,28v56H308V28c0-15.5-12.5-28-28-28s-28,12.5-28,28v56
		h-17.4C105.2,84,0,187.4,0,314.5v351C0,792.6,105.2,896,234.6,896h426.9C790.8,896,896,792.6,896,665.5v-351
		C896,187.4,790.8,84,661.4,84z M234.6,140H252v56c0,15.5,12.5,28,28,28s28-12.5,28-28v-56h280v56c0,15.5,12.5,28,28,28
		s28-12.5,28-28v-56h17.4c98.4,0,178.6,78.3,178.6,174.5v3.3H56v-3.3C56,218.3,136.1,140,234.6,140z M661.4,840H234.6
		C136.1,840,56,761.7,56,665.5V373.8h784v291.6C840,761.7,759.9,840,661.4,840z"/>
	<path class="st0" d="M663.7,493.9c-16.2-15.7-44.2-15.1-59.3,0c-3.9,3.9-7.3,8.4-9.5,13.5c-1.7,5.6-2.8,10.6-2.8,16.2
		c0,5.6,1.1,11.2,2.8,16.2c2.2,5,5.6,9.5,9.5,13.5c3.9,3.9,8.4,7.3,13.5,8.9c5,2.2,10.6,3.4,16.2,3.4c5.6,0,10.6-1.1,15.6-3.4
		c5.1-1.6,10.1-5,14-8.9c3.9-3.9,6.7-8.4,9-13.5s3.4-10.7,3.4-16.2c0-5.6-1.1-10.7-3.4-16.2C670.4,502.4,667.6,497.9,663.7,493.9z"
		/>
	<path class="st0" d="M477.8,493.9c-15.7-15.7-43.7-15.7-59.3,0c-3.9,3.9-7.3,8.4-9,13.5c-2.2,5.6-3.4,10.6-3.4,16.2
		c0,5.6,1.1,11.2,2.8,16.2c2.2,5,5.6,9.5,9.5,13.5c3.9,3.9,8.4,7.3,13.4,8.9c5,2.2,10.6,3.4,16.2,3.4c11.2,0,21.8-4.5,29.7-12.3
		c3.9-3.9,6.7-8.4,9-13.5s3.4-10.7,3.4-16.2c0-5.6-1.1-10.7-3.4-16.2C484.5,502.4,481.7,497.9,477.8,493.9z"/>
	<path class="st0" d="M291.9,493.9c-15.7-15.7-43.7-15.7-59.4,0c-7.8,7.9-12.3,19-12.3,29.7c0,5.6,1.1,11.2,3.4,16.2
		c1.7,5,5,9.5,8.9,13.5c7.8,7.8,18.5,12.3,29.7,12.3c5.6,0,10.6-1.1,16.2-3.4c5-1.6,9.5-5,13.4-8.9c3.9-3.9,6.7-8.4,9-13.5
		s3.4-10.7,3.4-16.2c0-5.6-1.1-10.7-3.4-16.2C298.6,502.4,295.8,497.9,291.9,493.9z"/>
	<path class="st0" d="M663.7,645.7c-3.9-3.9-8.4-7.3-14-9.5c-15.1-6.2-34.1-2.2-45.3,9.5c-3.9,3.9-7.3,8.4-9.5,13.5
		c-1.7,5-2.8,10.7-2.8,16.2c0,11.2,3.9,21.8,12.3,29.7c7.8,7.8,18.5,12.3,29.7,12.3c5.6,0,10.6-1.1,15.6-3.4c5.1-2.2,10.1-5,14-8.9
		c7.9-7.9,12.4-18.5,12.4-29.7c0-5.6-1.1-11.2-3.4-16.2S667.6,649.6,663.7,645.7z"/>
	<path class="st0" d="M477.8,645.7c-3.9-3.9-8.4-7.3-13.4-9.5c-15.7-6.7-34.2-2.2-45.9,9.5c-3.9,3.9-7.3,8.4-9.5,13.5
		c-1.7,5-2.8,10.7-2.8,16.2c0,11.2,4.5,21.8,12.3,29.7c3.9,3.9,8.4,6.7,13.4,8.9c5,2.2,10.6,3.4,16.2,3.4c11.2,0,21.8-4.5,29.7-12.3
		c7.8-7.9,12.3-18.5,12.3-29.7c0-5.6-1.1-11.2-3.4-16.2S481.7,649.6,477.8,645.7z"/>
	<path class="st0" d="M291.9,645.7c-15.7-15.7-44.2-15.7-59.4,0c-3.9,3.9-7.3,8.4-8.9,13.5c-2.2,5-3.4,10.7-3.4,16.2
		c0,11.2,4.5,21.8,12.3,29.7c7.8,7.8,18.5,12.3,29.7,12.3c11.2,0,21.8-4.5,29.7-12.3c7.8-7.9,12.3-18.5,12.3-29.7
		c0-5.6-1.1-11.2-3.4-16.2S295.8,649.6,291.9,645.7z"/>
</g>
</svg>
