<?xml version="1.0" encoding="utf-8"?>
<!-- Generator: Adobe Illustrator 25.4.1, SVG Export Plug-In . SVG Version: 6.00 Build 0)  -->
<svg version="1.1" id="线_编辑" xmlns="http://www.w3.org/2000/svg" xmlns:xlink="http://www.w3.org/1999/xlink" x="0px" y="0px"
	 width="896px" height="896px" viewBox="0 0 896 896" style="enable-background:new 0 0 896 896;" xml:space="preserve">
<style type="text/css">
	.st0{fill:#FFFFFF;}
</style>
<g>
	<path class="st0" d="M589.9,671.5H304.1c-30,0-53.4-20.7-53.4-47V356.7H108.5c-23.7,0-44.2-13.3-51.1-33.1
		c-6.1-17.6-0.2-36.8,15.2-48.9L411.2,11.4c20.1-15.8,51.5-15.8,71.7,0.1l338.3,263c15.6,12.3,21.5,31.5,15.4,49.1
		c-6.9,19.8-27.4,33.1-51.1,33.1H643.3v267.8C643.3,650.9,619.9,671.5,589.9,671.5z M306.7,615.3l280.7,0.2V328.7
		c0-15.5,12.5-28,28-28h148.3L448.4,55.6c0,0.1-1.7,0-2.4,0c-0.2,0-0.3,0-0.3,0l-315,245l148.1,0.2c15.5,0,28,12.5,28,28V615.3z
		 M428.5,33.5h0.5H428.5z"/>
	<path class="st0" d="M671,783.5H223c-15.5,0-28-12.5-28-28c0-15.5,12.5-28,28-28h448c15.5,0,28,12.5,28,28
		C699,771,686.5,783.5,671,783.5z"/>
	<path class="st0" d="M545,895.6H349c-15.5,0-28-12.5-28-28c0-15.5,12.5-28,28-28h196c15.5,0,28,12.5,28,28
		C573,883,560.5,895.6,545,895.6z"/>
</g>
</svg>
