<?xml version="1.0" encoding="utf-8"?>
<!-- Generator: Adobe Illustrator 25.4.1, SVG Export Plug-In . SVG Version: 6.00 Build 0)  -->
<svg version="1.1" id="线_编辑" xmlns="http://www.w3.org/2000/svg" xmlns:xlink="http://www.w3.org/1999/xlink" x="0px" y="0px"
	 width="896px" height="896px" viewBox="0 0 896 896" style="enable-background:new 0 0 896 896;" xml:space="preserve">
<style type="text/css">
	.st0{fill:#FFFFFF;}
</style>
<g>
	<path class="st0" d="M209,615.5c-6,0-12-1.9-17.1-5.8c-12.2-9.4-14.5-27-5-39.3l134.6-174.6c4.5-5.9,11.3-9.8,18.6-10.7
		c7.8-0.8,14.9,1.1,20.8,5.7l131.4,103l114.6-147.5c9.5-12.3,27.1-14.4,39.3-4.9c12.2,9.5,14.4,27.1,4.9,39.3L519.3,550.4
		c-4.5,5.9-11.3,9.7-18.6,10.6c-7.4,0.8-14.8-1.1-20.7-5.7L348.6,452.4L231.1,604.6C225.7,611.8,217.4,615.5,209,615.5z"/>
	<path class="st0" d="M783,223.5c-61.7,0-112-50.2-112-112s50.3-112,112-112s112,50.2,112,112S844.7,223.5,783,223.5z M783,55.5
		c-30.9,0-56,25.1-56,56s25.1,56,56,56s56-25.1,56-56S813.9,55.5,783,55.5z"/>
	<path class="st0" d="M602.6,895.5H235.4C94,895.5-1,796.1-1,648.3V303.1C-1,155,94,55.5,235.4,55.5h310.4c15.5,0,28,12.5,28,28
		s-12.5,28-28,28H235.4C125.8,111.5,55,186.7,55,303.1v345.1c0,118,69.1,191.2,180.4,191.2h367.3c109.5,0,180.4-75.1,180.4-191.2
		V347.7c0-15.5,12.5-28,28-28s28,12.5,28,28v300.5C839,796.1,744,895.5,602.6,895.5z"/>
</g>
</svg>
