<?xml version="1.0" encoding="utf-8"?>
<!-- Generator: Adobe Illustrator 25.4.1, SVG Export Plug-In . SVG Version: 6.00 Build 0)  -->
<svg version="1.1" id="线_编辑" xmlns="http://www.w3.org/2000/svg" xmlns:xlink="http://www.w3.org/1999/xlink" x="0px" y="0px"
	 width="896px" height="896px" viewBox="0 0 896 896" style="enable-background:new 0 0 896 896;" xml:space="preserve">
<style type="text/css">
	.st0{fill:#20AFBF;}
</style>
<g>
	<path class="st0" d="M924,588h-84V308h84c15.5,0,28-12.5,28-28s-12.5-28-28-28h-84c0-108.1-87.9-196-196-196v-84
		c0-15.5-12.5-28-28-28s-28,12.5-28,28v84H308v-84c0-15.5-12.5-28-28-28s-28,12.5-28,28v84C143.9,56,56,143.9,56,252h-84
		c-15.5,0-28,12.5-28,28s12.5,28,28,28h84v280h-84c-15.5,0-28,12.5-28,28s12.5,28,28,28h84c0,108.1,87.9,196,196,196v84
		c0,15.5,12.5,28,28,28s28-12.5,28-28v-84h280v84c0,15.5,12.5,28,28,28s28-12.5,28-28v-84c108.1,0,196-87.9,196-196h84
		c15.5,0,28-12.5,28-28S939.5,588,924,588z M784,644c0,77.2-62.8,140-140,140H252c-77.2,0-140-62.8-140-140V252
		c0-77.2,62.8-140,140-140h392c77.2,0,140,62.8,140,140V644z"/>
	<path class="st0" d="M479.1,266.3c-5-5.8-11.7-9.1-18.8-11.2c-3.7-1.9-7.8-3.1-12.3-3.1s-8.5,1.3-12.3,3.1
		c-7.1,2.1-13.7,5.4-18.8,11.2l-130,148.5c-10.2,11.6-9,29.3,2.6,39.5c11.6,10.1,29.3,9.1,39.5-2.7L420,347.8V616
		c0,15.5,12.5,28,28,28s28-12.5,28-28V347.8l90.9,103.9c5.5,6.3,13.3,9.6,21.1,9.6c6.6,0,13.1-2.3,18.4-6.9
		c11.6-10.2,12.9-27.9,2.6-39.5L479.1,266.3z"/>
</g>
</svg>
