<?xml version="1.0" encoding="utf-8"?>
<!-- Generator: Adobe Illustrator 25.4.1, SVG Export Plug-In . SVG Version: 6.00 Build 0)  -->
<svg version="1.1" id="线_编辑" xmlns="http://www.w3.org/2000/svg" xmlns:xlink="http://www.w3.org/1999/xlink" x="0px" y="0px"
	 width="896px" height="896px" viewBox="0 0 896 896" style="enable-background:new 0 0 896 896;" xml:space="preserve">
<style type="text/css">
	.st0{fill:#FFFFFF;}
</style>
<g>
	<path class="st0" d="M840,269c0-3.3-0.8-6.4-1.9-9.4c-0.1-0.1,0-0.3-0.1-0.5c-1.6-4.2-4.2-7.9-7.5-10.8L604.2,8.8
		C598.9,3.2,591.5,0,583.8,0h-327c-0.3,0-0.5,0-0.8,0C148.3,0,58.6,88.7,56,198.7v489.7c-2.4,112,85.5,205.1,200.8,207.6h388.4
		c110-4.5,195.6-95.5,194.8-207V269.5c0-0.1,0-0.2,0-0.3C839.9,269.1,840,269.1,840,269z M606.5,92.8L746.6,241h-55.4
		c-46.7-0.1-84.7-38.3-84.7-85.1L606.5,92.8L606.5,92.8z M644,840l-390.9-0.1C173.6,838.2,110.3,770.7,112,689V199.3
		C113.9,120.2,178.4,56,256.2,56c0.2,0,0.4,0,0.6,0h293.7v99.8c0,77.7,63.1,141,140.7,141.1H784v392.2
		C784.5,770.5,722.6,836.7,644,840z"/>
	<path class="st0" d="M571.6,585.3H324.3c-15.5,0-28,12.5-28,28s12.5,28,28,28h247.3c15.5,0,28-12.5,28-28S587.1,585.3,571.6,585.3z
		"/>
	<path class="st0" d="M324.3,434.7h151.1c15.5,0,28-12.5,28-28s-12.5-28-28-28H324.3c-15.5,0-28,12.5-28,28S308.9,434.7,324.3,434.7
		z"/>
</g>
</svg>
