<?xml version="1.0" encoding="utf-8"?>
<!-- Generator: Adobe Illustrator 25.2.0, SVG Export Plug-In . SVG Version: 6.00 Build 0)  -->
<svg version="1.1" id="图层_1" xmlns="http://www.w3.org/2000/svg" xmlns:xlink="http://www.w3.org/1999/xlink" x="0px" y="0px"
	 width="896px" height="896px" viewBox="0 0 896 896" style="enable-background:new 0 0 896 896;" xml:space="preserve">
<style type="text/css">
	.st0{fill:#2E7B7F;}
</style>
<path class="st0" d="M877.3,808.9H522.7V692.4H728c7.4,0,14-4.3,17-11.1c3-6.7,1.8-14.6-3.1-20.1l-109-121.9h70.2
	c7.2,0,13.8-4.2,16.9-10.7c3.1-6.5,2.1-14.2-2.4-19.8L587,349.5h66.3c7.1,0,13.7-4.1,16.8-10.5c3.1-6.4,2.3-14.1-2.1-19.7
	L462.7,56.6c-7.1-9.1-22.3-9.1-29.4,0L228,319.3c-4.4,5.6-5.2,13.3-2.1,19.7c3.1,6.4,9.6,10.5,16.8,10.5H309L178.5,508.8
	c-4.6,5.6-5.5,13.3-2.4,19.8c3.1,6.5,9.7,10.7,16.9,10.7h70.2l-109,121.9c-4.9,5.5-6.1,13.4-3.1,20.1c3,6.7,9.7,11.1,17,11.1h205.3
	v116.5H18.7C8.4,808.9,0,817.2,0,827.5s8.4,18.7,18.7,18.7H392h112h373.3c10.3,0,18.7-8.4,18.7-18.7S887.6,808.9,877.3,808.9z
	 M410.7,808.9V673.7c0-10.3-8.4-18.7-18.7-18.7H209.8l109-121.9c4.9-5.5,6.1-13.4,3.1-20.1c-3-6.7-9.7-11.1-17-11.1h-72.6
	l130.6-159.3c4.6-5.6,5.5-13.3,2.4-19.8c-3.1-6.5-9.7-10.7-16.9-10.7H281L448,98.4l167,213.8h-67.5c-7.2,0-13.8,4.2-16.9,10.7
	c-3.1,6.5-2.1,14.2,2.4,19.8L663.7,502h-72.6c-7.4,0-14,4.3-17,11.1c-3,6.7-1.8,14.6,3.1,20.1l109,121.9H504
	c-10.3,0-18.7,8.4-18.7,18.7v135.1H410.7z"/>
</svg>
