<?xml version="1.0" encoding="utf-8"?>
<!-- Generator: Adobe Illustrator 25.2.0, SVG Export Plug-In . SVG Version: 6.00 Build 0)  -->
<svg version="1.1" id="图层_1" xmlns="http://www.w3.org/2000/svg" xmlns:xlink="http://www.w3.org/1999/xlink" x="0px" y="0px"
	 width="896px" height="896px" viewBox="0 0 896 896" style="enable-background:new 0 0 896 896;" xml:space="preserve">
<style type="text/css">
	.st0{fill:#7A4436;}
</style>
<g>
	<path class="st0" d="M877.3,859.2H18.7C8.4,859.2,0,867.5,0,877.8s8.4,18.7,18.7,18.7h858.7c10.3,0,18.7-8.4,18.7-18.7
		S887.6,859.2,877.3,859.2z"/>
	<path class="st0" d="M46.5,806.8c8.9,5.2,20.3,2.3,25.6-6.6c68.3-116.2,109.1-398,118.6-469.9h241.6c3.3,18.5,9.4,51.8,18,93.3
		H248.9c-10.3,0-18.7,8.4-18.7,18.7s8.4,18.7,18.7,18.7h209.4c23.4,106.8,59.6,247.9,103.6,338c3.2,6.6,9.9,10.5,16.8,10.5
		c2.7,0,5.5-0.6,8.2-1.9c9.3-4.5,13.1-15.7,8.6-25c-74.6-152.6-128.5-470.8-129-474c-1.5-9-9.3-15.6-18.4-15.6H174.2
		c-9.4,0-17.4,7-18.5,16.4c-0.4,3.5-42.8,347.7-115.8,471.9C34.7,790.2,37.7,801.6,46.5,806.8z"/>
	<path class="st0" d="M782.5,522.1c-15.2-74.3-23.4-128.1-23.6-129.2c-1.4-9.1-9.2-15.9-18.5-15.9H528.9c-10.3,0-18.7,8.4-18.7,18.7
		s8.4,18.7,18.7,18.7h195.6c3.1,18.9,9.1,53.4,17.6,96.4H578.7c-10.3,0-18.7,8.4-18.7,18.7s8.4,18.7,18.7,18.7h171.1
		c16,75.8,38.4,168.5,66.4,248.8c2.7,7.7,9.9,12.5,17.6,12.5c2,0,4.1-0.3,6.1-1c9.7-3.4,14.9-14,11.5-23.8
		c-28.7-82.5-51.6-178.8-67.4-255.2C784,526.8,783.5,524.3,782.5,522.1z"/>
	<path class="st0" d="M627.1,324.3c4.6,0,9.1-1.6,12.7-5c7.1-6.8,8-17.5,1.8-25c1.7-1.8,6.3-5.5,17.6-9.8c14.1-2.3,24-3.6,31.6-4.5
		c19.2-2.4,27.2-3.4,48.6-14.8c0.8-0.4,1.5-0.9,2.2-1.4c15.2-11.1,23.2-23.2,23.7-35.9c0.4-10.8-4.7-19.3-9.7-23.6
		c-7.8-6.8-19.6-6-26.3,1.8c-5.2,6-5.9,14.4-2.4,21.1c-1.1,1.3-3,3.3-6.3,5.8c-14.2,7.5-17.6,8-34.4,10.1c-8.3,1-19.2,2.4-34.9,5.1
		c-1.1,0.2-2.2,0.5-3.3,0.9c-25.5,9.3-39.8,21.6-43.5,37.7c-3.2,13.5,2.6,25.5,8.6,31.7C616.8,322.2,622,324.3,627.1,324.3z"/>
	<path class="st0" d="M314.2,224.4c4.6,0,9.2-1.7,12.9-5.1c7.4-7,7.7-18.7,0.9-26.3c-0.2-0.3-5.9-6.6-4-14.2
		c1.5-6,10.1-21.8,56.3-38.4c32.5-5.3,54.7-8,72.6-10.2c40.5-5,55.7-6.8,99-29.3c0.8-0.4,1.5-0.9,2.2-1.4
		c27.8-19.8,42.4-40.3,43.3-60.9C598,23,590.2,10.7,583.4,5c-7.9-6.7-19.7-5.7-26.3,2.2c-6.7,7.9-5.7,19.6,2.2,26.3
		c0,0,0.8,1.7,0.7,3.7c-0.1,2.9-2.4,13.8-26.6,31.3c-36.3,18.8-45.9,20-85.1,24.8c-17.5,2.2-41.6,5.1-75.8,10.7
		c-1.1,0.2-2.2,0.4-3.2,0.8c-48.8,17.2-75.5,38.8-81.8,66c-6.3,27.1,11.5,46.2,13.5,48.3C304.7,222.6,309.4,224.4,314.2,224.4z"/>
</g>
</svg>
