<?xml version="1.0" encoding="utf-8"?>
<!-- Generator: Adobe Illustrator 25.2.0, SVG Export Plug-In . SVG Version: 6.00 Build 0)  -->
<svg version="1.1" id="图层_1" xmlns="http://www.w3.org/2000/svg" xmlns:xlink="http://www.w3.org/1999/xlink" x="0px" y="0px"
	 width="896px" height="896px" viewBox="0 0 896 896" style="enable-background:new 0 0 896 896;" xml:space="preserve">
<!-- <style type="text/css">
	.st0{fill:#0E8680;}
</style> -->
<g>
	<path class="st0" d="M848,304H48c-26.5,0-48,21.5-48,48v192c0,26.5,21.5,48,48,48h800c26.5,0,48-21.5,48-48V352
		C896,325.5,874.5,304,848,304z M872,544c0,13.2-10.8,24-24,24H48c-13.2,0-24-10.8-24-24V352c0-13.2,10.8-24,24-24h800
		c13.2,0,24,10.8,24,24V544z"/>
	<circle class="st0" cx="440" cy="448" r="68"/>
	<path class="st0" d="M760,476h-48c-11,0-20,9-20,20s9,20,20,20h48c11,0,20-9,20-20S771.1,476,760,476z"/>
</g>
</svg>
