<?xml version="1.0" encoding="utf-8"?>
<!-- Generator: Adobe Illustrator 25.4.1, SVG Export Plug-In . SVG Version: 6.00 Build 0)  -->
<svg version="1.1" id="图层_1" xmlns="http://www.w3.org/2000/svg" xmlns:xlink="http://www.w3.org/1999/xlink" x="0px" y="0px"
	 width="56px" height="56px" viewBox="0 0 56 56" style="enable-background:new 0 0 56 56;" xml:space="preserve">
<style type="text/css">
	.st0{fill:#bbbcbc;}
</style>
<path class="st0" d="M49.7,10.7c1.3,0,2.3-1,2.3-2.3v-2C52,5,51,4,49.7,4H6.3C5,4,4,5,4,6.3v2c0,1.3,1,2.3,2.3,2.3H12v4H6.3
	C5,14.7,4,15.7,4,17v11c0,13.2,10.8,24,24,24s24-10.8,24-24V17c0-1.3-1-2.3-2.3-2.3H44v-4H49.7z M6.3,8.7C6.1,8.7,6,8.5,6,8.3v-2
	C6,6.1,6.1,6,6.3,6h43.3C49.9,6,50,6.1,50,6.3v2c0,0.2-0.1,0.3-0.3,0.3H44H12H6.3z M49.7,16.7c0.2,0,0.3,0.1,0.3,0.3v11
	c0,12.1-9.9,22-22,22S6,40.1,6,28V17c0-0.2,0.1-0.3,0.3-0.3H12h32H49.7z M42,14.7H14v-4h28V14.7z"/>
</svg>
