<?xml version="1.0" encoding="utf-8"?>
<!-- Generator: Adobe Illustrator 25.4.1, SVG Export Plug-In . SVG Version: 6.00 Build 0)  -->
<svg version="1.1" id="线_编辑" xmlns="http://www.w3.org/2000/svg" xmlns:xlink="http://www.w3.org/1999/xlink" x="0px" y="0px"
	 width="896px" height="896px" viewBox="0 0 896 896" style="enable-background:new 0 0 896 896;" xml:space="preserve">
<style type="text/css">
	.st0{fill:#000000;}
</style>
<g>
	<path class="st0" d="M896,370V162c0-58.5-50.3-106-112-106H112C50.3,56,0,103.6,0,162v208c0,31,14.3,58.6,36.8,78
		C14.3,467.4,0,495,0,526v208c0,58.5,50.3,106,112,106h672c61.7,0,112-47.5,112-106V526c0-31-14.3-58.6-36.8-78
		C881.7,428.6,896,401,896,370z M840,526v208c0,27.6-25.1,50-56,50H112c-30.9,0-56-22.4-56-50V526c0-27.6,25.1-50,56-50h672
		C814.9,476,840,498.4,840,526z M112,420c-30.9,0-56-22.4-56-50V162c0-27.6,25.1-50,56-50h672c30.9,0,56,22.4,56,50v208
		c0,27.6-25.1,50-56,50H112z"/>
	<path class="st0" d="M529,238H396.4c-15.5,0-28,12.5-28,28s12.5,28,28,28H529c15.5,0,28-12.5,28-28S544.5,238,529,238z"/>
	<path class="st0" d="M764.9,238H632.2c-15.5,0-28,12.5-28,28s12.5,28,28,28h132.7c15.5,0,28-12.5,28-28S780.3,238,764.9,238z"/>
	<path class="st0" d="M396.4,658H529c15.5,0,28-12.5,28-28s-12.5-28-28-28H396.4c-15.5,0-28,12.5-28,28S381,658,396.4,658z"/>
	<path class="st0" d="M632.2,658h132.7c15.5,0,28-12.5,28-28s-12.5-28-28-28H632.2c-15.5,0-28,12.5-28,28S616.7,658,632.2,658z"/>
</g>
</svg>
