<?xml version="1.0" encoding="utf-8"?>
<!-- Generator: Adobe Illustrator 25.2.0, SVG Export Plug-In . SVG Version: 6.00 Build 0)  -->
<svg version="1.1" id="图层_1" xmlns="http://www.w3.org/2000/svg" xmlns:xlink="http://www.w3.org/1999/xlink" x="0px" y="0px"
	 width="896px" height="896px" viewBox="0 0 896 896" style="enable-background:new 0 0 896 896;" xml:space="preserve">
<style type="text/css">
	.st0{fill:#86BCB9;}
	.st1{fill:#0E8680;}
</style>
<g>
	<path class="st0" d="M573.4,58.7h-53.7V0.5h-42.6h-58.2h-42.6v58.2h-53.7v44.8v44.8v44.8v44.8v44.8v44.8v44.8v44.8v62.7v44.8v44.8
		v44.8V659v44.8v44.8v44.8v44.8h53.7v58.3h42.6h58.2h42.6v-58.3h53.8v-44.8v-44.8v-44.8V659v-44.8v-44.8v-44.8v-44.8v-62.7v-44.8
		v-44.8v-44.8v-44.8v-44.8v-44.8v-44.8L573.4,58.7L573.4,58.7z M555.5,76.7v26.8h-35.8V76.7H555.5z M555.5,148.3h-35.8v-26.8h35.8
		V148.3z M555.5,193.1h-35.8v-26.8h35.8V193.1z M555.5,237.9h-35.8v-26.8h35.8V237.9z M555.5,282.7h-35.8v-26.8h35.8V282.7z
		 M555.5,327.5h-35.8v-26.8h35.8V327.5z M555.5,372.3h-35.8v-26.8h35.8V372.3z M555.5,417.1h-35.8v-26.8h35.8V417.1z M394.2,435.1
		h24.7V462h-24.7V435.1z M376.3,462h-35.8v-26.9h35.8V462z M436.8,730.8v-27h22.4v27H436.8z M459.2,748.6v27h-22.4v-27H459.2z
		 M436.8,686v-27h22.4v27H436.8z M436.8,641.2v-27h22.4v27H436.8z M436.8,596.4v-27h22.4v27H436.8z M436.8,551.6v-27h22.4v27H436.8z
		 M436.8,506.8v-27h22.4v27H436.8z M436.8,462v-26.9h22.4V462H436.8z M436.8,417.1v-26.8h22.4v26.8H436.8z M459.2,166.3v26.8h-22.4
		v-26.8H459.2z M436.8,148.3v-26.8h22.4v26.8H436.8z M459.2,211.1v26.8h-22.4v-26.8H459.2z M459.2,255.9v26.8h-22.4v-26.8H459.2z
		 M459.2,300.7v26.8h-22.4v-26.8H459.2z M459.2,345.5v26.8h-22.4v-26.8H459.2z M477.1,390.3h24.7v26.8h-24.7V390.3z M477.1,372.3
		v-26.8h24.7v26.8H477.1z M477.1,327.5v-26.8h24.7v26.8H477.1z M477.1,282.7v-26.8h24.7v26.8H477.1z M477.1,237.9v-26.8h24.7v26.8
		H477.1z M477.1,193.1v-26.8h24.7v26.8H477.1z M477.1,148.3v-26.8h24.7v26.8H477.1z M477.1,103.5V76.7h24.7v26.8H477.1z
		 M459.2,103.5h-22.4V76.7h22.4V103.5z M418.9,103.5h-24.7V76.7h24.7V103.5z M418.9,121.5v26.8h-24.7v-26.8H418.9z M418.9,166.3
		v26.8h-24.7v-26.8H418.9z M418.9,211.1v26.8h-24.7v-26.8H418.9z M418.9,255.9v26.8h-24.7v-26.8H418.9z M418.9,300.7v26.8h-24.7
		v-26.8H418.9z M418.9,345.5v26.8h-24.7v-26.8H418.9z M418.9,390.3v26.8h-24.7v-26.8H418.9z M418.9,479.8v27h-24.7v-27H418.9z
		 M418.9,524.6v27h-24.7v-27H418.9z M418.9,569.4v27h-24.7v-27H418.9z M418.9,614.2v27h-24.7v-27H418.9z M418.9,659v27h-24.7v-27
		H418.9z M418.9,703.8v27h-24.7v-27H418.9z M418.9,748.6v27h-24.7v-27H418.9z M418.9,793.4v27h-24.7v-27H418.9z M436.8,793.4h22.4
		v27h-22.4V793.4z M477.1,793.4h24.7v27h-24.7V793.4z M477.1,775.6v-27h24.7v27H477.1z M477.1,730.8v-27h24.7v27H477.1z M477.1,686
		v-27h24.7v27H477.1z M477.1,641.2v-27h24.7v27H477.1z M477.1,596.4v-27h24.7v27H477.1z M477.1,551.6v-27h24.7v27H477.1z
		 M477.1,506.8v-27h24.7v27H477.1z M477.1,462v-26.9h24.7V462H477.1z M519.7,435.1h35.8V462h-35.8V435.1z M501.8,18.4v40.3h-24.7
		V18.4H501.8z M459.2,18.4v40.3h-22.4V18.4H459.2z M394.2,18.4h24.7v40.3h-24.7V18.4z M340.5,76.7h35.8v26.8h-35.8V76.7z
		 M340.5,121.5h35.8v26.8h-35.8V121.5z M340.5,166.3h35.8v26.8h-35.8V166.3z M340.5,211.1h35.8v26.8h-35.8V211.1z M340.5,255.9h35.8
		v26.8h-35.8V255.9z M340.5,300.7h35.8v26.8h-35.8V300.7z M340.5,345.5h35.8v26.8h-35.8V345.5z M340.5,390.3h35.8v26.8h-35.8V390.3z
		 M376.3,479.8v27h-35.8v-27H376.3z M376.3,524.6v27h-35.8v-27H376.3z M376.3,569.4v27h-35.8v-27H376.3z M376.3,614.2v27h-35.8v-27
		H376.3z M376.3,659v27h-35.8v-27H376.3z M376.3,703.8v27h-35.8v-27H376.3z M376.3,748.6v27h-35.8v-27H376.3z M340.5,820.4v-27h35.8
		v27H340.5z M394.2,878.6v-40.4h24.7v40.4H394.2z M436.8,878.6v-40.4h22.4v40.4H436.8z M501.8,878.6h-24.7v-40.4h24.7V878.6z
		 M555.5,820.4h-35.8v-27h35.8V820.4z M555.5,775.6h-35.8v-27h35.8V775.6z M555.5,730.8h-35.8v-27h35.8V730.8z M555.5,686h-35.8v-27
		h35.8V686z M555.5,641.2h-35.8v-27h35.8V641.2z M555.5,596.4h-35.8v-27h35.8V596.4z M555.5,551.6h-35.8v-27h35.8V551.6z
		 M555.5,506.8h-35.8v-27h35.8V506.8z"/>
	<path class="st1" d="M531.6,27.4c8.2,0,14.9,6.7,14.9,14.9v812.4c0,8.2-6.7,14.9-14.9,14.9H364.4c-3.8,0-6.6-1.4-8.3-2.5
		c-2.4-1.6-4.3-3.9-5.4-6.6c-0.8-1.8-1.2-3.8-1.2-5.8V42.3c0-2,0.4-4,1.2-5.8c1.1-2.7,3-5,5.4-6.6c1.7-1.2,4.5-2.5,8.3-2.5H531.6
		 M531.6,0.5H364.4c-8.7,0-16.7,2.6-23.4,7.1c-6.7,4.5-12,10.9-15.1,18.4c-2.1,5-3.3,10.5-3.3,16.3v812.4c0,5.8,1.2,11.3,3.3,16.3
		c3.2,7.5,8.5,13.9,15.1,18.4c6.7,4.5,14.7,7.1,23.4,7.1h167.3c23.1,0,41.8-18.7,41.8-41.8V42.3C573.4,19.2,554.7,0.5,531.6,0.5
		L531.6,0.5z"/>
</g>
</svg>
