<?xml version="1.0" encoding="utf-8"?>
<!-- Generator: Adobe Illustrator 25.4.1, SVG Export Plug-In . SVG Version: 6.00 Build 0)  -->
<svg version="1.1" id="图层_1" xmlns="http://www.w3.org/2000/svg" xmlns:xlink="http://www.w3.org/1999/xlink" x="0px" y="0px"
	 width="36px" height="36px" viewBox="0 0 36 36" style="enable-background:new 0 0 36 36;" xml:space="preserve">
<style type="text/css">
	.st0{fill:#146A89;}
</style>
<g>
	<path class="st0" d="M24.5,6h-13C10.1,6,9,7.1,9,8.5v19c0,1.4,1.1,2.5,2.5,2.5h13c1.4,0,2.5-1.1,2.5-2.5v-19C27,7.1,25.9,6,24.5,6z
		 M26,27.5c0,0.8-0.7,1.5-1.5,1.5h-13c-0.8,0-1.5-0.7-1.5-1.5v-19C10,7.7,10.7,7,11.5,7h13C25.3,7,26,7.7,26,8.5V27.5z"/>
	<path class="st0" d="M24,8H12c-0.5,0-1,0.4-1,1v14c0,0.5,0.5,1,1,1h12c0.5,0,1-0.5,1-1V9C25,8.4,24.5,8,24,8z"/>
	<circle class="st0" cx="18" cy="26.5" r="1.5"/>
</g>
</svg>
