<?xml version="1.0" encoding="utf-8"?>
<!-- Generator: Adobe Illustrator 25.4.1, SVG Export Plug-In . SVG Version: 6.00 Build 0)  -->
<svg version="1.1" id="图层_1" xmlns="http://www.w3.org/2000/svg" xmlns:xlink="http://www.w3.org/1999/xlink" x="0px" y="0px"
	 width="896px" height="896px" viewBox="0 0 896 896" style="enable-background:new 0 0 896 896;" xml:space="preserve">
<style type="text/css">
	.st0{fill:#45515E;}
	.st1{opacity:0.8;fill:#45515E;}
</style>
<g>
	<path class="st0" d="M263.8,498.1H145.9C65.5,498.1,0,432.7,0,352.2V145.9C0,65.5,65.5,0,145.9,0h117.9
		c80.4,0,145.9,65.5,145.9,145.9v206.3C409.7,432.7,344.2,498.1,263.8,498.1z M145.9,56C96.3,56,56,96.3,56,145.9v206.3
		c0,49.5,40.3,89.9,89.9,89.9h117.9c49.6,0,89.9-40.3,89.9-89.9V145.9c0-49.6-40.3-89.9-89.9-89.9H145.9z"/>
	<path class="st1" d="M750.1,321.3H632.2c-80.4,0-145.9-65.5-145.9-145.9v-29.4C486.3,65.5,551.7,0,632.2,0h117.9
		C830.5,0,896,65.5,896,145.9v29.4C896,255.8,830.5,321.3,750.1,321.3z M632.2,56c-49.5,0-89.9,40.3-89.9,89.9v29.4
		c0,49.6,40.3,89.9,89.9,89.9h117.9c49.6,0,89.9-40.3,89.9-89.9v-29.4c0-49.6-40.3-89.9-89.9-89.9H632.2z"/>
	<path class="st0" d="M263.8,896H145.9C65.5,896,0,830.5,0,750.1v-29.5c0-80.4,65.5-145.9,145.9-145.9h117.9
		c80.4,0,145.9,65.5,145.9,145.9v29.5C409.7,830.5,344.2,896,263.8,896z M145.9,630.7C96.3,630.7,56,671,56,720.6v29.5
		c0,49.6,40.3,89.9,89.9,89.9h117.9c49.6,0,89.9-40.3,89.9-89.9v-29.5c0-49.6-40.3-89.9-89.9-89.9H145.9z"/>
	<path class="st0" d="M750.1,896H632.2c-80.4,0-145.9-65.5-145.9-145.9V543.8c0-80.4,65.4-145.9,145.9-145.9h117.9
		c80.4,0,145.9,65.5,145.9,145.9v206.3C896,830.5,830.5,896,750.1,896z M632.2,453.9c-49.5,0-89.9,40.3-89.9,89.9v206.3
		c0,49.6,40.3,89.9,89.9,89.9h117.9c49.6,0,89.9-40.3,89.9-89.9V543.8c0-49.6-40.3-89.9-89.9-89.9H632.2z"/>
</g>
</svg>
