<?xml version="1.0" encoding="utf-8"?>
<!-- Generator: Adobe Illustrator 25.2.0, SVG Export Plug-In . SVG Version: 6.00 Build 0)  -->
<svg version="1.1" id="图层_1" xmlns="http://www.w3.org/2000/svg" xmlns:xlink="http://www.w3.org/1999/xlink" x="0px" y="0px"
	 width="896px" height="896px" viewBox="0 0 896 896" style="enable-background:new 0 0 896 896;" xml:space="preserve">
<style type="text/css">
	.st0{fill:#04C5FF;}
</style>
<g>
	<path class="st0" d="M336,403.7H67.2C30.1,403.7,0,373.6,0,336.5V67.7C0,30.6,30.1,0.5,67.2,0.5H336c37.1,0,67.2,30.1,67.2,67.2
		v268.8C403.2,373.6,373.1,403.7,336,403.7z M67.2,45.3c-12.4,0-22.4,10-22.4,22.4v268.8c0,12.4,10,22.4,22.4,22.4H336
		c12.4,0,22.4-10,22.4-22.4V67.7c0-12.4-10-22.4-22.4-22.4H67.2z"/>
	<path class="st0" d="M828.8,403.7H560c-37.1,0-67.2-30.1-67.2-67.2V67.7c0-37.1,30.1-67.2,67.2-67.2h268.8
		c37.1,0,67.2,30.1,67.2,67.2v268.8C896,373.6,865.9,403.7,828.8,403.7z M560,45.3c-12.4,0-22.4,10-22.4,22.4v268.8
		c0,12.4,10,22.4,22.4,22.4h268.8c12.4,0,22.4-10,22.4-22.4V67.7c0-12.4-10-22.4-22.4-22.4H560z"/>
	<path class="st0" d="M336,896.5H67.2C30.1,896.5,0,866.4,0,829.3V560.5c0-37.1,30.1-67.2,67.2-67.2H336c37.1,0,67.2,30.1,67.2,67.2
		v268.8C403.2,866.4,373.1,896.5,336,896.5z M67.2,538.1c-12.4,0-22.4,10-22.4,22.4v268.8c0,12.4,10,22.4,22.4,22.4H336
		c12.4,0,22.4-10,22.4-22.4V560.5c0-12.4-10-22.4-22.4-22.4H67.2z"/>
	<path class="st0" d="M828.8,896.5H560c-37.1,0-67.2-30.1-67.2-67.2V560.5c0-37.1,30.1-67.2,67.2-67.2h268.8
		c37.1,0,67.2,30.1,67.2,67.2v268.8C896,866.4,865.9,896.5,828.8,896.5z M560,538.1c-12.4,0-22.4,10-22.4,22.4v268.8
		c0,12.4,10,22.4,22.4,22.4h268.8c12.4,0,22.4-10,22.4-22.4V560.5c0-12.4-10-22.4-22.4-22.4H560z"/>
</g>
</svg>
