<?xml version="1.0" encoding="utf-8"?>
<!-- Generator: Adobe Illustrator 25.4.1, SVG Export Plug-In . SVG Version: 6.00 Build 0)  -->
<svg version="1.1" id="线_编辑" xmlns="http://www.w3.org/2000/svg" xmlns:xlink="http://www.w3.org/1999/xlink" x="0px" y="0px"
	 width="896px" height="896px" viewBox="0 0 896 896" style="enable-background:new 0 0 896 896;" xml:space="preserve">
<style type="text/css">
	.st0{fill:#20AFBF;}
</style>
<g>
	<path class="st0" d="M647.2,550.8H248.8c-15.5,0-28,12.5-28,28s12.5,28,28,28h398.3c15.5,0,28-12.5,28-28S662.6,550.8,647.2,550.8z
		"/>
	<path class="st0" d="M592.2,674.7H303.8c-15.5,0-28,12.5-28,28s12.5,28,28,28h288.5c15.5,0,28-12.5,28-28S607.7,674.7,592.2,674.7z
		"/>
	<path class="st0" d="M647.2,0h-68.7h-261h-68.7C142.5,0,56,86.7,56,193.3v509.5C56,809.3,142.5,896,248.8,896h398.3
		C753.5,896,840,809.3,840,702.7V193.3C840,86.7,753.5,0,647.2,0z M550.5,56c-0.2,22.3-18.4,40.4-40.7,40.4H386.2
		c-22.3,0-40.4-18.1-40.7-40.4H550.5z M784,702.7c0,75.7-61.4,137.3-136.8,137.3H248.8C173.4,840,112,778.4,112,702.7V193.3
		C112,117.6,173.4,56,248.8,56h40.7c0.2,53.2,43.5,96.4,96.7,96.4h123.6c53.1,0,96.4-43.2,96.7-96.4h40.7
		C722.6,56,784,117.6,784,193.3V702.7z"/>
	<path class="st0" d="M675.2,297.3L675.2,297.3C675.2,297.2,675.2,297.2,675.2,297.3c0-0.5,0-1,0-1.4v-0.1c0-0.4-0.1-0.8-0.1-1.2
		c0-0.1,0-0.2,0-0.3c0-0.3-0.1-0.7-0.1-1c0-0.1,0-0.3-0.1-0.4c0-0.3-0.1-0.6-0.2-0.8c0-0.2-0.1-0.4-0.1-0.6s-0.1-0.4-0.2-0.7
		c-0.1-0.2-0.1-0.5-0.2-0.7c0-0.2-0.1-0.3-0.1-0.5c-0.1-0.3-0.2-0.6-0.3-0.8c0-0.1-0.1-0.3-0.1-0.4c-0.1-0.3-0.2-0.6-0.3-0.9
		c0-0.1-0.1-0.2-0.1-0.3c-0.1-0.3-0.3-0.7-0.4-1c0-0.1-0.1-0.1-0.1-0.2c-0.2-0.4-0.3-0.7-0.5-1.1v-0.1c-4.6-9.1-14.1-15.3-25-15.3
		h-110c-15.5,0-28,12.5-28,28s12.5,28,28,28h35.6L490.4,398l-109-95.8c-10.6-9.3-26.4-9.3-37,0l-114.1,99.9
		c-11.6,10.2-12.8,27.9-2.6,39.5s27.9,12.7,39.5,2.6l95.6-83.9l109,95.8c5.3,4.6,11.9,6.9,18.5,6.9s13.2-2.3,18.5-6.9l110.3-96.9
		v48.3c0,15.5,12.5,28,28,28s28-12.5,28-28V297.8C675.2,297.6,675.2,297.4,675.2,297.3z"/>
</g>
</svg>
