<?xml version="1.0" encoding="utf-8"?>
<!-- Generator: Adobe Illustrator 25.2.0, SVG Export Plug-In . SVG Version: 6.00 Build 0)  -->
<svg version="1.1" id="图层_1" xmlns="http://www.w3.org/2000/svg" xmlns:xlink="http://www.w3.org/1999/xlink" x="0px" y="0px"
	 width="896px" height="896px" viewBox="0 0 896 896" style="enable-background:new 0 0 896 896;" xml:space="preserve">
<style type="text/css">
	.st0{fill-rule:evenodd;clip-rule:evenodd;fill:#0E8680;}
</style>
<g>
	<path class="st0" d="M647.1,0H248.9C111.4,0,0,111.4,0,248.9v398.2C0,784.6,111.4,896,248.9,896h398.2
		C784.6,896,896,784.6,896,647.1V248.9C896,111.4,784.6,0,647.1,0z M858.7,647.1c0,116.7-94.9,211.6-211.6,211.6H248.9
		c-116.7,0-211.6-94.9-211.6-211.6V248.9c0-116.7,94.9-211.6,211.6-211.6h398.2c116.7,0,211.6,94.9,211.6,211.6V647.1z"/>
	<path class="st0" d="M259,392.9c-7.6,11.8-11.1,25.7-9.9,39.6c14.5-14.6,35.1-21.4,55.4-18.1c-8.5-14.2-13.1-30.4-13.5-46.9
		C277.8,372.2,266.6,381.1,259,392.9z"/>
	<path class="st0" d="M333.4,350.1c4.4-15.3,15.3-28,29.7-34.7c14.4-6.7,31.1-6.9,45.7-0.4c14.6,6.5,25.7,18.9,30.4,34.1
		c36-5.9,66.3-30.5,79.4-64.6c-18.1,15.1-40.8,23.6-64.3,24c-14.7-17.5-35.6-28.7-58.4-31.1c-22.7-2.4-45.5,4-63.6,18
		c-18.1,14-30,34.5-33.4,57.1c-3.3,22.6,2.2,45.7,15.5,64.3l25.6-21.5C331.4,382,328.9,365.5,333.4,350.1z"/>
	<path class="st0" d="M407.2,565.1c-18.9-19.1-25-47.4-15.9-72.6c9.2-25.2,32.1-42.9,58.9-45.4c26.7-2.5,52.5,10.6,66.3,33.7
		l30.2-14.1c-17.4-31.5-50-51.7-86-53.1c11.7-18.1,16.4-39.8,13.2-61.1c-10.2,5-21.1,8.5-32.4,10.4c1.1,22.4-11.5,43.2-31.8,52.7
		c-20.3,9.5-44.4,5.7-60.9-9.5l-25.6,21.5c14,14.2,32.3,23.3,52.2,25.8c-13.8,17.7-21.3,39.5-21.5,62c-0.2,22.5,6.9,44.4,20.4,62.4
		c13.4,18,32.4,31.1,54,37.3c21.6,6.2,44.6,5.2,65.5-2.9l-14.1-30.3C454.3,590.7,426.1,584.2,407.2,565.1z"/>
	<path class="st0" d="M613.3,572.5c-11.8-2.6-21.7-10.6-26.9-21.5c-0.1-0.1-0.1-0.3-0.2-0.4l-33.3-71.5l-30.1,14.1l26.4,56.7
		l-56.7,26.5l14,30.1l56.8-26.5l1.1,2.3c6.3,13.4,17.1,24.3,30.5,30.6c13.4,6.3,28.6,7.7,43,4l9.3-52.8c-4.6,3.9-10.1,6.7-16,8.1
		C625.3,573.8,619.2,573.8,613.3,572.5z"/>
</g>
</svg>
