<?xml version="1.0" encoding="utf-8"?>
<!-- Generator: Adobe Illustrator 25.2.0, SVG Export Plug-In . SVG Version: 6.00 Build 0)  -->
<svg version="1.1" id="图层_1" xmlns="http://www.w3.org/2000/svg" xmlns:xlink="http://www.w3.org/1999/xlink" x="0px" y="0px"
	 width="896px" height="896px" viewBox="0 0 896 896" style="enable-background:new 0 0 896 896;" xml:space="preserve">
<style type="text/css">
	.st0{fill:#0E8680;}
	.st1{opacity:0.3;fill:#0E8680;}
</style>
<g>
	<path class="st0" d="M858.7,360c1.8,0,3.6,0.3,5.2,1c2.4,1,4.4,2.7,5.9,4.9c1,1.5,2.3,4.1,2.3,7.4v149.3c0,7.4-6,13.3-13.3,13.3
		H37.3C30,536,24,530,24,522.7V373.3c0-3.4,1.2-5.9,2.3-7.4c1.5-2.2,3.5-3.8,5.9-4.9c1.6-0.7,3.4-1,5.2-1H858.7 M858.7,336H37.3
		c-5.2,0-10.1,1-14.5,2.9c-6.7,2.8-12.4,7.6-16.4,13.5c-4,6-6.4,13.1-6.4,20.9v149.3C0,543.3,16.7,560,37.3,560h821.3
		c20.6,0,37.3-16.7,37.3-37.3V373.3c0-7.7-2.3-14.9-6.4-20.9c-4-6-9.7-10.7-16.4-13.5C868.7,337,863.8,336,858.7,336L858.7,336z"/>
	<circle class="st1" cx="105.8" cy="448" r="62.2"/>
	<circle class="st1" cx="790.2" cy="448" r="62.2"/>
	<g>
		<path class="st0" d="M314.3,391.9h22.5l32,58.9l11.2,23.9h0.7c-1.2-11.5-3-26.2-3-38.7v-44.1h21v110.6h-22.5l-31.9-59.2
			l-11.2-23.7h-0.7c1,11.9,2.8,25.8,2.8,38.5v44.3h-20.9V391.9z"/>
		<path class="st0" d="M445.7,445.5l-29.2-53.6H441l11.1,22.9c2.6,5.2,5,10.5,8.3,17.4h0.6c2.7-6.9,5-12.3,7.4-17.4l10.5-22.9H502
			l-29.1,54.6l31.1,55.9h-24.5l-12.4-24.5c-2.8-5.7-5.5-11.4-8.7-18.2h-0.6c-2.8,6.8-5.4,12.5-8,18.2l-11.8,24.5h-23.4L445.7,445.5z
			"/>
		<path class="st0" d="M537.5,410.3h-31.1v-18.4h84.4v18.4h-31.2v92.1h-22.1V410.3z"/>
	</g>
</g>
</svg>
