<?xml version="1.0" encoding="utf-8"?>
<!-- Generator: Adobe Illustrator 25.4.1, SVG Export Plug-In . SVG Version: 6.00 Build 0)  -->
<svg version="1.1" id="图层_1" xmlns="http://www.w3.org/2000/svg" xmlns:xlink="http://www.w3.org/1999/xlink" x="0px" y="0px"
	 width="896px" height="896px" viewBox="0 0 896 896" style="enable-background:new 0 0 896 896;" xml:space="preserve">
<style type="text/css">
	.st0{fill:#FFFFFF;}
</style>
<g>
	<g>
		<g id="Iconly_Two-tone_Home_00000170985113257262268090000010498918096119277457_" transform="translate(288 1618.904)">
			<g id="Home-7_00000146489035436759831070000003707878350899979427_" transform="translate(2.5 2)">
				<path class="st0" d="M389.1-724.9c-0.3,0-0.7,0-1,0h-73.5c-41.7-0.9-73.9-35.8-74-79.4v-129.2c-0.1-17.3-12-31.6-26.6-31.6
					H103.5c-6.6-0.3-13.8,4-17.2,7.3c-6.1,6.1-9.7,15-9.7,24.4v129.1c-0.1,43.6-32.3,78.5-73.4,79.4h-74.3c-0.3,0-0.6,0-0.8,0
					c-45.1,0-85.5-18.1-115.9-51c-29.9-32.4-46.5-75.5-46.7-121.2v-303.6c0-15.5,12.5-28,28-28s28,12.5,28,28v303.5
					c0.2,31.6,11.5,61.3,31.9,83.4c19.7,21.4,48.2,32.5,73.1,33H2.6c9.6-0.2,18-10.7,18-23.4v-129.1c0.1-24.3,9.7-47.6,26.3-64
					c15.3-15.2,35.3-23.5,56.3-23.5c0.1,0,0.3,0,0.4,0h110.4c45.3,0.1,82.4,39.3,82.5,87.5v129.3c0,12.7,8.4,23.2,18.6,23.4h73.1
					c0.2,0,0.4,0,0.6,0c27.4,0,53.1-11.7,72.7-32.9c20.4-22.1,31.7-51.8,31.9-83.5v-303.5c0-15.5,12.5-28,28-28s28,12.5,28,28v303.5
					c-0.3,46-16.8,89-46.8,121.4C472.4-743,432.1-724.9,389.1-724.9z"/>
			</g>
		</g>
	</g>
	<g>
		<g id="Iconly_Two-tone_Home_00000132806782540491228430000017254419030602480541_" transform="translate(288 1618.904)">
			<g id="Home-7_00000158720259796044572600000015065262847000119706_" transform="translate(2.5 2)">
				<path class="st0" d="M-318.5-1228.8c-8.1,0-16.2-3.5-21.7-10.3c-9.8-12-8-29.6,4-39.4l365.3-297.2
					c75.2-60.3,180.1-60.2,255.1-0.1l366.9,297c12,9.7,13.9,27.4,4.2,39.4c-9.7,12-27.3,13.9-39.4,4.2l-366.8-296.9
					c-54.4-43.5-130.3-43.6-184.8,0.1l-365.1,297.1C-306-1230.9-312.3-1228.8-318.5-1228.8z"/>
			</g>
		</g>
	</g>
</g>
</svg>
