<?xml version="1.0" standalone="no"?><svg xmlns="http://www.w3.org/2000/svg" viewBox="0 0 1440 320"><path fill="#e2d8d2" fill-opacity="1" d="M0,224L7.1,218.7C14.1,213,28,203,42,176C56.5,149,71,107,85,122.7C98.8,139,113,213,127,245.3C141.2,277,155,267,169,245.3C183.5,224,198,192,212,181.3C225.9,171,240,181,254,202.7C268.2,224,282,256,296,256C310.6,256,325,224,339,218.7C352.9,213,367,235,381,218.7C395.3,203,409,149,424,117.3C437.6,85,452,75,466,90.7C480,107,494,149,508,149.3C522.4,149,536,107,551,122.7C564.7,139,579,213,593,229.3C607.1,245,621,203,635,202.7C649.4,203,664,245,678,229.3C691.8,213,706,139,720,133.3C734.1,128,748,192,762,213.3C776.5,235,791,213,805,218.7C818.8,224,833,256,847,256C861.2,256,875,224,889,192C903.5,160,918,128,932,122.7C945.9,117,960,139,974,149.3C988.2,160,1002,160,1016,170.7C1030.6,181,1045,203,1059,202.7C1072.9,203,1087,181,1101,192C1115.3,203,1129,245,1144,240C1157.6,235,1172,181,1186,181.3C1200,181,1214,235,1228,261.3C1242.4,288,1256,288,1271,250.7C1284.7,213,1299,139,1313,138.7C1327.1,139,1341,213,1355,234.7C1369.4,256,1384,224,1398,213.3C1411.8,203,1426,213,1433,218.7L1440,224L1440,320L1432.9,320C1425.9,320,1412,320,1398,320C1383.5,320,1369,320,1355,320C1341.2,320,1327,320,1313,320C1298.8,320,1285,320,1271,320C1256.5,320,1242,320,1228,320C1214.1,320,1200,320,1186,320C1171.8,320,1158,320,1144,320C1129.4,320,1115,320,1101,320C1087.1,320,1073,320,1059,320C1044.7,320,1031,320,1016,320C1002.4,320,988,320,974,320C960,320,946,320,932,320C917.6,320,904,320,889,320C875.3,320,861,320,847,320C832.9,320,819,320,805,320C790.6,320,776,320,762,320C748.2,320,734,320,720,320C705.9,320,692,320,678,320C663.5,320,649,320,635,320C621.2,320,607,320,593,320C578.8,320,565,320,551,320C536.5,320,522,320,508,320C494.1,320,480,320,466,320C451.8,320,438,320,424,320C409.4,320,395,320,381,320C367.1,320,353,320,339,320C324.7,320,311,320,296,320C282.4,320,268,320,254,320C240,320,226,320,212,320C197.6,320,184,320,169,320C155.3,320,141,320,127,320C112.9,320,99,320,85,320C70.6,320,56,320,42,320C28.2,320,14,320,7,320L0,320Z"></path></svg>