<?xml version="1.0" standalone="no"?><svg xmlns="http://www.w3.org/2000/svg" viewBox="0 0 1440 320"><path fill="#edf8fb" fill-opacity="1" d="M0,160L12,170.7C24,181,48,203,72,186.7C96,171,120,117,144,90.7C168,64,192,64,216,80C240,96,264,128,288,128C312,128,336,96,360,112C384,128,408,192,432,224C456,256,480,256,504,266.7C528,277,552,299,576,266.7C600,235,624,149,648,96C672,43,696,21,720,42.7C744,64,768,128,792,133.3C816,139,840,85,864,64C888,43,912,53,936,85.3C960,117,984,171,1008,176C1032,181,1056,139,1080,138.7C1104,139,1128,181,1152,181.3C1176,181,1200,139,1224,128C1248,117,1272,139,1296,149.3C1320,160,1344,160,1368,176C1392,192,1416,224,1428,240L1440,256L1440,320L1428,320C1416,320,1392,320,1368,320C1344,320,1320,320,1296,320C1272,320,1248,320,1224,320C1200,320,1176,320,1152,320C1128,320,1104,320,1080,320C1056,320,1032,320,1008,320C984,320,960,320,936,320C912,320,888,320,864,320C840,320,816,320,792,320C768,320,744,320,720,320C696,320,672,320,648,320C624,320,600,320,576,320C552,320,528,320,504,320C480,320,456,320,432,320C408,320,384,320,360,320C336,320,312,320,288,320C264,320,240,320,216,320C192,320,168,320,144,320C120,320,96,320,72,320C48,320,24,320,12,320L0,320Z"></path></svg>