<?xml version="1.0" standalone="no"?><svg xmlns="http://www.w3.org/2000/svg" viewBox="0 0 1440 320"><path fill="#0099ff" fill-opacity="0.1" d="M0,0L11.4,16C22.9,32,46,64,69,112C91.4,160,114,224,137,256C160,288,183,288,206,288C228.6,288,251,288,274,256C297.1,224,320,160,343,133.3C365.7,107,389,117,411,128C434.3,139,457,149,480,154.7C502.9,160,526,160,549,165.3C571.4,171,594,181,617,202.7C640,224,663,256,686,266.7C708.6,277,731,267,754,224C777.1,181,800,107,823,96C845.7,85,869,139,891,165.3C914.3,192,937,192,960,192C982.9,192,1006,192,1029,208C1051.4,224,1074,256,1097,229.3C1120,203,1143,117,1166,112C1188.6,107,1211,181,1234,229.3C1257.1,277,1280,299,1303,298.7C1325.7,299,1349,277,1371,245.3C1394.3,213,1417,171,1429,149.3L1440,128L1440,320L1428.6,320C1417.1,320,1394,320,1371,320C1348.6,320,1326,320,1303,320C1280,320,1257,320,1234,320C1211.4,320,1189,320,1166,320C1142.9,320,1120,320,1097,320C1074.3,320,1051,320,1029,320C1005.7,320,983,320,960,320C937.1,320,914,320,891,320C868.6,320,846,320,823,320C800,320,777,320,754,320C731.4,320,709,320,686,320C662.9,320,640,320,617,320C594.3,320,571,320,549,320C525.7,320,503,320,480,320C457.1,320,434,320,411,320C388.6,320,366,320,343,320C320,320,297,320,274,320C251.4,320,229,320,206,320C182.9,320,160,320,137,320C114.3,320,91,320,69,320C45.7,320,23,320,11,320L0,320Z"></path></svg>